<svg xmlns="http://www.w3.org/2000/svg" width="508.511" height="508.513" viewBox="0 0 508.511 508.513">
  <g id="sffsf" transform="translate(0 -0.007)">
    <g id="Group_30247" data-name="Group 30247">
      <g id="Group_30246" data-name="Group 30246">
        <path id="Path_45795" data-name="Path 45795" d="M263.54.116c-5.784-.54-12.554.858-20.531,5.689,0,0-132.533,115.625-138.317,121.314H31.782A31.841,31.841,0,0,0,0,158.933V353.664a31.754,31.754,0,0,0,31.782,31.782h72.941C110.507,391.2,243.04,502.723,243.04,502.723c7.977,4.8,14.747,6.229,20.531,5.689,11.76-1.112,20.023-10.965,22.534-21.358.1-1.017.1-464.533-.064-465.55C283.563,11.081,275.268,1.228,263.54.116Z" fill="#fff"/>
        <path id="Path_45796" data-name="Path 45796" d="M447.974,254.28l54.857-54.857A19.394,19.394,0,1,0,475.4,172l-54.856,54.889L365.658,172a19.385,19.385,0,0,0-27.4,27.428l54.857,54.857-54.857,54.888a19.375,19.375,0,1,0,27.4,27.4l54.888-54.857L475.4,336.564a19.385,19.385,0,1,0,27.428-27.4Z" fill="#fff"/>
      </g>
    </g>
  </g>
</svg>
