<svg xmlns="http://www.w3.org/2000/svg" width="492.629" height="508.513" viewBox="0 0 492.629 508.513">
  <g id="sdfdsfsfsd" transform="translate(-7.943)">
    <g id="Group_30249" data-name="Group 30249">
      <g id="Group_30248" data-name="Group 30248">
        <path id="Path_45797" data-name="Path 45797" d="M271.483.109C265.7-.431,258.929.967,250.952,5.8c0,0-132.533,115.625-138.286,121.314H39.725A31.841,31.841,0,0,0,7.943,158.926V353.657a31.754,31.754,0,0,0,31.782,31.782h72.941c5.753,5.753,138.286,117.277,138.286,117.277,7.977,4.8,14.747,6.229,20.531,5.689,11.76-1.112,20.023-10.965,22.534-21.358.127-1.017.127-464.533-.032-465.55C291.506,11.074,283.211,1.222,271.483.109Z" fill="#fff"/>
        <path id="Path_45798" data-name="Path 45798" d="M342.962,309.8a15.887,15.887,0,0,0,7.12,30.1,16.7,16.7,0,0,0,7.151-1.684c32.132-16.209,52.091-48.341,52.091-83.938s-19.959-67.728-52.091-83.938a15.9,15.9,0,1,0-14.272,28.416,61.867,61.867,0,0,1,0,111.047Z" fill="#fff"/>
        <path id="Path_45799" data-name="Path 45799" d="M339.72,59.32a15.9,15.9,0,1,0-6.071,31.212c78.312,15.254,135.139,84.126,135.139,163.741S411.962,402.761,333.65,418.017a15.9,15.9,0,0,0,2.988,31.5l3.083-.318c93.218-18.148,160.851-100.147,160.851-194.922S432.938,77.5,339.72,59.32Z" fill="#fff"/>
      </g>
    </g>
  </g>
</svg>
